<svg width="22" height="22" viewBox="0 0 22 22" fill="none" xmlns="http://www.w3.org/2000/svg">
<path d="M19.5651 0.5C20.184 0.5 20.7775 0.745826 21.215 1.18342C21.6526 1.62101 21.8984 2.2145 21.8984 2.83334V19.1666C21.8984 19.7856 21.6526 20.379 21.215 20.8165C20.7775 21.2542 20.184 21.5 19.5651 21.5H3.23178C2.61293 21.5 2.01945 21.2542 1.58186 20.8165C1.14426 20.379 0.898438 19.7856 0.898438 19.1666V2.83334C0.898438 2.2145 1.14426 1.62101 1.58186 1.18342C2.01945 0.745826 2.61293 0.5 3.23178 0.5H19.5651ZM18.9818 18.5834V12.4C18.9818 11.3913 18.581 10.4239 17.8678 9.71064C17.1545 8.99737 16.1871 8.59666 15.1784 8.59666C14.1868 8.59666 13.0318 9.20334 12.4718 10.1133V8.81834H9.21678V18.5834H12.4718V12.8316C12.4718 11.9334 13.1951 11.1984 14.0934 11.1984C14.5266 11.1984 14.9421 11.3704 15.2484 11.6768C15.5548 11.9831 15.7268 12.3985 15.7268 12.8316V18.5834H18.9818ZM5.4251 6.98666C5.94493 6.98666 6.44346 6.78016 6.81103 6.41259C7.1786 6.04502 7.3851 5.5465 7.3851 5.02666C7.3851 3.94166 6.5101 3.055 5.4251 3.055C4.90218 3.055 4.40068 3.26273 4.03092 3.63249C3.66117 4.00224 3.45344 4.50375 3.45344 5.02666C3.45344 6.11166 4.3401 6.98666 5.4251 6.98666ZM7.04678 18.5834V8.81834H3.8151V18.5834H7.04678Z" fill="white"/>
</svg>
