<svg width="80" height="80" viewBox="0 0 80 80" fill="none" xmlns="http://www.w3.org/2000/svg">
<path d="M54.0625 14.6875C60.2759 14.6875 65.3125 19.7243 65.3125 25.9375M76.5625 25.9375C76.5625 38.3639 66.4889 48.4375 54.0625 48.4375C52.7474 48.4375 51.4581 48.3246 50.2049 48.1082C48.0936 47.7434 45.8575 48.205 44.3425 49.72L36.1225 57.94C35.0036 59.0589 33.4861 59.6875 31.9037 59.6875H30.1562C27.8263 59.6875 25.9375 61.5763 25.9375 63.9062V63.9062C25.9375 66.2362 24.0487 68.125 21.7188 68.125V68.125C19.3888 68.125 17.5 70.0138 17.5 72.3438V72.3438C17.5 74.6737 15.6112 76.5625 13.2812 76.5625H9.4375C6.12379 76.5625 3.4375 73.8762 3.4375 70.5625V65.995C3.4375 63.757 4.32644 61.6109 5.90879 60.0287L30.28 35.6575C31.7951 34.1425 32.2567 31.9064 31.8919 29.7951C31.6754 28.5417 31.5625 27.2528 31.5625 25.9375C31.5625 13.5111 41.6361 3.4375 54.0625 3.4375C66.4889 3.4375 76.5625 13.5111 76.5625 25.9375Z" stroke="url(#paint0_linear_86_4210)" stroke-width="5" stroke-linecap="round" stroke-linejoin="round"/>
<path d="M54.0625 14.6875C60.2759 14.6875 65.3125 19.7243 65.3125 25.9375M76.5625 25.9375C76.5625 38.3639 66.4889 48.4375 54.0625 48.4375C52.7474 48.4375 51.4581 48.3246 50.2049 48.1082C48.0936 47.7434 45.8575 48.205 44.3425 49.72L36.1225 57.94C35.0036 59.0589 33.4861 59.6875 31.9037 59.6875H30.1562C27.8263 59.6875 25.9375 61.5763 25.9375 63.9062V63.9062C25.9375 66.2362 24.0487 68.125 21.7188 68.125V68.125C19.3888 68.125 17.5 70.0138 17.5 72.3438V72.3438C17.5 74.6737 15.6112 76.5625 13.2812 76.5625H9.4375C6.12379 76.5625 3.4375 73.8762 3.4375 70.5625V65.995C3.4375 63.757 4.32644 61.6109 5.90879 60.0287L30.28 35.6575C31.7951 34.1425 32.2567 31.9064 31.8919 29.7951C31.6754 28.5417 31.5625 27.2528 31.5625 25.9375C31.5625 13.5111 41.6361 3.4375 54.0625 3.4375C66.4889 3.4375 76.5625 13.5111 76.5625 25.9375Z" stroke="white" stroke-width="5" stroke-linecap="round" stroke-linejoin="round"/>
<defs>
<linearGradient id="paint0_linear_86_4210" x1="21.7188" y1="36.8661" x2="47.0987" y2="95.1607" gradientUnits="userSpaceOnUse">
<stop stop-color="#EB5103"/>
<stop offset="1" stop-color="#EFCA44"/>
</linearGradient>
</defs>
</svg>
